<svg id="Capa_1" enable-background="new 0 0 512 512" height="512" viewBox="0 0 512 512" width="512" xmlns="http://www.w3.org/2000/svg"><g><path d="m312.256 389.274-23.344-9.225c9.342-8.781 15.193-21.235 15.193-35.036v-15.118c0-26.525-21.58-48.105-48.105-48.105s-48.105 21.58-48.105 48.105v15.118c0 13.802 5.851 26.255 15.193 35.036l-23.344 9.225c-12.142 4.799-34.744 13.732-34.744 36.976v85.75h83.5v-15h-68.5v-70.75c0-10.909 9.261-16.703 25.256-23.025l33.596-13.277c5.33 2.041 11.108 3.17 17.147 3.17s11.817-1.129 17.147-3.17l33.597 13.277c15.996 6.32 25.257 12.114 25.257 23.025v70.75h-68.5v15h83.5v-85.75c0-23.247-22.602-32.178-34.744-36.976zm-89.361-44.261v-15.118c0-18.254 14.851-33.105 33.105-33.105s33.105 14.851 33.105 33.105v15.118c0 18.254-14.851 33.105-33.105 33.105s-33.105-14.85-33.105-33.105z"/><path d="m165 381.25h15v-9.139c0-22.874-21.709-31.685-34.68-36.949l-23.664-9.604c9.491-8.625 15.459-21.062 15.459-34.867v-14.75c0-25.979-21.136-47.115-47.116-47.115s-47.116 21.136-47.116 47.115v14.75c0 13.805 5.968 26.242 15.459 34.867l-23.664 9.605c-12.969 5.263-34.678 14.075-34.678 36.948v85.75h82.5v-15h-67.5v-70.75c0-10.738 8.899-16.386 25.32-23.051l34.198-13.88c4.853 1.694 10.059 2.626 15.482 2.626s10.629-.932 15.482-2.626l34.198 13.88c16.421 6.665 25.32 12.313 25.32 23.051zm-107.115-90.559v-14.75c0-17.708 14.407-32.115 32.116-32.115s32.116 14.407 32.116 32.115v14.75c0 17.708-14.407 32.116-32.116 32.116s-32.116-14.408-32.116-32.116z"/><path d="m97.501 442.862h52.5v15h-52.5z"/><path d="m482 0h-218.5v15h218.5c8.271 0 15 6.729 15 15v27.413h15v-27.413c0-16.542-13.458-30-30-30z"/><path d="m497 99.826c0 8.271-6.729 15-15 15h-34.633l-25.367 55.635-25.368-55.635h-104.579l-19.626 48.28 13.896 5.648 15.825-38.928h84.838l35.014 76.79 35.014-76.79h24.986c16.542 0 30-13.458 30-30v-27.413h-15z"/><path d="m15 30c0-8.271 6.729-15 15-15h218.5v-15h-218.5c-16.542 0-30 13.458-30 30v27.413h15z"/><path d="m30 129.826h24.987l35.013 76.79 35.014-76.79h84.838l46.148 113.522 24.672-60.696-13.896-5.648-10.776 26.512-36.053-88.69h-104.579l-25.368 55.635-25.368-55.635h-34.632c-8.271 0-15-6.729-15-15v-27.413h-15v27.413c0 16.542 13.458 30 30 30z"/><path d="m361.999 442.862h52.5v15h-52.5z"/><path d="m477.32 335.162-23.664-9.604c9.491-8.625 15.459-21.062 15.459-34.867v-14.75c0-25.979-21.136-47.115-47.115-47.115-25.98 0-47.116 21.136-47.116 47.115v14.75c0 13.805 5.968 26.242 15.459 34.867l-23.664 9.604c-12.971 5.264-34.679 14.076-34.679 36.949v9.139h15v-9.139c0-10.738 8.899-16.386 25.32-23.051l34.198-13.88c4.853 1.694 10.059 2.626 15.482 2.626s10.629-.932 15.482-2.626l34.197 13.88c16.422 6.666 25.321 12.314 25.321 23.051v70.75h-67.5v15h82.5v-85.75c0-22.873-21.709-31.685-34.68-36.949zm-87.436-44.471v-14.75c0-17.708 14.407-32.115 32.116-32.115 17.708 0 32.115 14.407 32.115 32.115v14.75c0 17.708-14.407 32.116-32.115 32.116-17.709 0-32.116-14.408-32.116-32.116z"/><path d="m78.749 42.413h114.503v15h-114.503z"/><path d="m238.253 42.413h164.998v15h-164.998z"/><path d="m343.251 72.413h90v15h-90z"/><path d="m108.749 72.413h189.503v15h-189.503z"/><path d="m467 412.862h15v15h-15z"/><path d="m302 467h15v15h-15z"/><path d="m135.001 412.862h15v15h-15z"/><path d="m302 437.001h15v15h-15z"/><path d="m135.001 382.863h15v15h-15z"/><path d="m467 382.863h15v15h-15z"/></g></svg>